# xmcd CD database file generated by LOLA_Freedb v0.9beta0
# 
# Track frame offsets:
#      150
#      15983
#      29988
#      42950
#      54756
#      65370
#      78297
#      92900
#      110308
#      124348
#      141546
#      159394
#      181468
#      195306
#      211696
#      228227
#      242112
#      256656
#      267442
#      283433
# 
# Disc length: 4030 seconds
# 
# Revision: 0 
# Processed by: cddbd v1.5.2PL0 Copyright (c) Steve Scherf et al.
# Submitted via: LOLA_Freedb v0.9beta0
# 
DISCID=180fbc14
DTITLE=Easy Rider - Mit Bluejeans, Boots und Stetson
DYEAR=2007
DGENRE=
TTITLE0=Easy Rider - Mit Howdy und Countrymusic
TTITLE1=Easy Rider - Blue Jeans, Boots and Stetson
TTITLE2=Easy Rider - Träumen wir
TTITLE3=Easy Rider - Sie waren uns gute Freunde
TTITLE4=Easy Rider - Country Music Time
TTITLE5=Easy Rider - Echte Cowboys
TTITLE6=Easy Rider - Logosong
TTITLE7=Easy Rider - John Denvers Ghost
TTITLE8=Easy Rider - Kleine Country Welt
TTITLE9=Easy Rider - Zeitlos wie Blue Jeans
TTITLE10=Easy Rider - Engel der Freiheit
TTITLE11=Easy Rider - Frei sein wie der Wind
TTITLE12=Easy Rider - In Family
TTITLE13=Easy Rider - Fernweh
TTITLE14=Easy Rider - Wild, wild Canada
TTITLE15=Easy Rider - Niagara
TTITLE16=Easy Rider - Das Leben geht weiter
TTITLE17=Easy Rider - Zackis Saloon
TTITLE18=Easy Rider - Easy Rider Come Back
TTITLE19=Easy Rider - Der alte Tramp
EXTD=
EXTT0=
EXTT1=
EXTT2=
EXTT3=
EXTT4=
EXTT5=
EXTT6=
EXTT7=
EXTT8=
EXTT9=
EXTT10=
EXTT11=
EXTT12=
EXTT13=
EXTT14=
EXTT15=
EXTT16=
EXTT17=
EXTT18=
EXTT19=
PLAYORDER=
